<?xml version="1.0" encoding="UTF-8"?><svg id="Layer_2" xmlns="http://www.w3.org/2000/svg" viewBox="0 0 1400 600"><defs><style>.cls-1{fill:#231f20;}</style></defs><g id="Layer_1-2"><rect class="cls-1" y="300" width="100" height="100"/><rect class="cls-1" y="200" width="100" height="100"/><rect class="cls-1" y="100" width="100" height="100"/><rect class="cls-1" x="100" y="0" width="100" height="100"/><rect class="cls-1" x="200" y="0" width="100" height="100"/><rect class="cls-1" x="300" y="100" width="100" height="100"/><rect class="cls-1" x="300" y="200" width="100" height="100"/><rect class="cls-1" x="300" y="300" width="100" height="100"/><rect class="cls-1" x="300" y="400" width="100" height="100"/><rect class="cls-1" y="400" width="100" height="100"/><rect class="cls-1" x="300" y="500" width="100" height="100"/><rect class="cls-1" y="500" width="100" height="100"/><rect class="cls-1" x="100" y="300" width="100" height="100"/><rect class="cls-1" x="200" y="300" width="100" height="100"/><rect class="cls-1" x="500" y="300" width="100" height="100"/><rect class="cls-1" x="500" y="200" width="100" height="100"/><rect class="cls-1" x="500" y="100" width="100" height="100"/><rect class="cls-1" x="600" width="100" height="100"/><rect class="cls-1" x="500" width="100" height="100"/><rect class="cls-1" x="700" width="100" height="100"/><rect class="cls-1" x="800" y="100" width="100" height="100"/><rect class="cls-1" x="800" y="200" width="100" height="100"/><rect class="cls-1" x="800" y="400" width="100" height="100"/><rect class="cls-1" x="500" y="400" width="100" height="100"/><rect class="cls-1" x="800" y="500" width="100" height="100"/><rect class="cls-1" x="500" y="500" width="100" height="100"/><rect class="cls-1" x="600" y="300" width="100" height="100"/><rect class="cls-1" x="700" y="300" width="100" height="100"/><rect class="cls-1" x="1000" y="200" width="100" height="100"/><rect class="cls-1" x="1000" y="100" width="100" height="100"/><rect class="cls-1" x="1100" width="100" height="100"/><rect class="cls-1" x="1200" width="100" height="100"/><rect class="cls-1" x="1300" width="100" height="100"/><rect class="cls-1" x="1300" y="400" width="100" height="100"/><rect class="cls-1" x="1300" y="300" width="100" height="100"/><rect class="cls-1" x="1000" y="500" width="100" height="100"/><rect class="cls-1" x="1100" y="500" width="100" height="100"/><rect class="cls-1" x="1200" y="500" width="100" height="100"/><rect class="cls-1" x="1100" y="250" width="100" height="100"/><rect class="cls-1" x="1200" y="250" width="100" height="100"/></g></svg>